<mxfile host="app.diagrams.net" modified="2024-01-15T04:09:38.823Z" agent="Mozilla/5.0 (Macintosh; Intel Mac OS X 10.15; rv:121.0) Gecko/20100101 Firefox/121.0" etag="TKNDSEVupu1SCgdtbEG4" version="22.1.18" type="github">
  <diagram id="prtHgNgQTEPvFCAcTncT" name="Page-1">
    <mxGraphModel dx="707" dy="455" grid="1" gridSize="10" guides="1" tooltips="1" connect="1" arrows="1" fold="1" page="1" pageScale="1" pageWidth="827" pageHeight="1169" math="0" shadow="0">
      <root>
        <mxCell id="0" />
        <mxCell id="1" parent="0" />
        <mxCell id="dNxyNK7c78bLwvsdeMH5-19" value="Proses Bisnis Utama" style="swimlane;html=1;childLayout=stackLayout;resizeParent=1;resizeParentMax=0;horizontal=0;startSize=20;horizontalStack=0;" parent="1" vertex="1">
          <mxGeometry x="120" y="120" width="1100" height="560" as="geometry" />
        </mxCell>
        <mxCell id="dNxyNK7c78bLwvsdeMH5-20" value="Kawan Disabilitas" style="swimlane;html=1;startSize=20;horizontal=0;" parent="dNxyNK7c78bLwvsdeMH5-19" vertex="1">
          <mxGeometry x="20" width="1080" height="150" as="geometry" />
        </mxCell>
        <mxCell id="dNxyNK7c78bLwvsdeMH5-25" value="" style="edgeStyle=orthogonalEdgeStyle;rounded=0;orthogonalLoop=1;jettySize=auto;html=1;" parent="dNxyNK7c78bLwvsdeMH5-20" source="dNxyNK7c78bLwvsdeMH5-23" target="dNxyNK7c78bLwvsdeMH5-24" edge="1">
          <mxGeometry relative="1" as="geometry" />
        </mxCell>
        <mxCell id="dNxyNK7c78bLwvsdeMH5-23" value="mulai" style="ellipse;whiteSpace=wrap;html=1;" parent="dNxyNK7c78bLwvsdeMH5-20" vertex="1">
          <mxGeometry x="40" y="40" width="40" height="40" as="geometry" />
        </mxCell>
        <mxCell id="dNxyNK7c78bLwvsdeMH5-24" value="Entry Akun Baru" style="rounded=0;whiteSpace=wrap;html=1;fontFamily=Helvetica;fontSize=12;fontColor=#000000;align=center;" parent="dNxyNK7c78bLwvsdeMH5-20" vertex="1">
          <mxGeometry x="110" y="30" width="80" height="60" as="geometry" />
        </mxCell>
        <mxCell id="Zu1tbRachrqtXYw8oNH1-11" value="Entry Data Pendukung" style="rounded=0;whiteSpace=wrap;html=1;fontFamily=Helvetica;fontSize=12;fontColor=#000000;align=center;" vertex="1" parent="dNxyNK7c78bLwvsdeMH5-20">
          <mxGeometry x="230" y="30" width="80" height="60" as="geometry" />
        </mxCell>
        <mxCell id="Zu1tbRachrqtXYw8oNH1-12" value="" style="endArrow=classic;html=1;rounded=0;entryX=0;entryY=0.5;entryDx=0;entryDy=0;exitX=1;exitY=0.5;exitDx=0;exitDy=0;" edge="1" parent="dNxyNK7c78bLwvsdeMH5-20" source="dNxyNK7c78bLwvsdeMH5-24" target="Zu1tbRachrqtXYw8oNH1-11">
          <mxGeometry width="50" height="50" relative="1" as="geometry">
            <mxPoint x="180" y="140" as="sourcePoint" />
            <mxPoint x="230" y="90" as="targetPoint" />
          </mxGeometry>
        </mxCell>
        <mxCell id="Zu1tbRachrqtXYw8oNH1-13" value="Entry Usaha dan Rincian Usaha" style="rounded=0;whiteSpace=wrap;html=1;fontFamily=Helvetica;fontSize=12;fontColor=#000000;align=center;" vertex="1" parent="dNxyNK7c78bLwvsdeMH5-20">
          <mxGeometry x="350" y="30" width="80" height="60" as="geometry" />
        </mxCell>
        <mxCell id="Zu1tbRachrqtXYw8oNH1-14" value="" style="endArrow=classic;html=1;rounded=0;exitX=1;exitY=0.5;exitDx=0;exitDy=0;entryX=0;entryY=0.5;entryDx=0;entryDy=0;" edge="1" parent="dNxyNK7c78bLwvsdeMH5-20" source="Zu1tbRachrqtXYw8oNH1-11" target="Zu1tbRachrqtXYw8oNH1-13">
          <mxGeometry width="50" height="50" relative="1" as="geometry">
            <mxPoint x="330" y="150" as="sourcePoint" />
            <mxPoint x="380" y="100" as="targetPoint" />
          </mxGeometry>
        </mxCell>
        <mxCell id="Zu1tbRachrqtXYw8oNH1-22" value="Perbarui data Usaha" style="rounded=0;whiteSpace=wrap;html=1;fontFamily=Helvetica;fontSize=12;fontColor=#000000;align=center;" vertex="1" parent="dNxyNK7c78bLwvsdeMH5-20">
          <mxGeometry x="480" y="30" width="80" height="60" as="geometry" />
        </mxCell>
        <mxCell id="Zu1tbRachrqtXYw8oNH1-34" value="Penyaluran Dana dan Progress Usaha" style="rounded=0;whiteSpace=wrap;html=1;" vertex="1" parent="dNxyNK7c78bLwvsdeMH5-20">
          <mxGeometry x="730" y="30" width="90" height="60" as="geometry" />
        </mxCell>
        <mxCell id="Zu1tbRachrqtXYw8oNH1-1" value="Tim Konfirmasi" style="swimlane;html=1;startSize=20;horizontal=0;" vertex="1" parent="dNxyNK7c78bLwvsdeMH5-19">
          <mxGeometry x="20" y="150" width="1080" height="120" as="geometry" />
        </mxCell>
        <mxCell id="Zu1tbRachrqtXYw8oNH1-15" value="Verifikasi Usaha" style="rounded=0;whiteSpace=wrap;html=1;fontFamily=Helvetica;fontSize=12;fontColor=#000000;align=center;" vertex="1" parent="Zu1tbRachrqtXYw8oNH1-1">
          <mxGeometry x="350" y="30" width="80" height="60" as="geometry" />
        </mxCell>
        <mxCell id="Zu1tbRachrqtXYw8oNH1-20" value="Valid?" style="rhombus;whiteSpace=wrap;html=1;" vertex="1" parent="Zu1tbRachrqtXYw8oNH1-1">
          <mxGeometry x="480" y="20" width="80" height="80" as="geometry" />
        </mxCell>
        <mxCell id="Zu1tbRachrqtXYw8oNH1-21" value="" style="endArrow=classic;html=1;rounded=0;exitX=1;exitY=0.5;exitDx=0;exitDy=0;entryX=0;entryY=0.5;entryDx=0;entryDy=0;" edge="1" parent="Zu1tbRachrqtXYw8oNH1-1" source="Zu1tbRachrqtXYw8oNH1-15" target="Zu1tbRachrqtXYw8oNH1-20">
          <mxGeometry width="50" height="50" relative="1" as="geometry">
            <mxPoint x="400" y="160" as="sourcePoint" />
            <mxPoint x="450" y="110" as="targetPoint" />
          </mxGeometry>
        </mxCell>
        <mxCell id="Zu1tbRachrqtXYw8oNH1-32" value="Penyaluran Dana" style="rounded=0;whiteSpace=wrap;html=1;" vertex="1" parent="Zu1tbRachrqtXYw8oNH1-1">
          <mxGeometry x="730" y="30" width="90" height="60" as="geometry" />
        </mxCell>
        <mxCell id="Zu1tbRachrqtXYw8oNH1-19" value="Pemberi Dana" style="swimlane;horizontal=0;html=1;startSize=20;" vertex="1" parent="dNxyNK7c78bLwvsdeMH5-19">
          <mxGeometry x="20" y="270" width="1080" height="150" as="geometry" />
        </mxCell>
        <mxCell id="Zu1tbRachrqtXYw8oNH1-28" value="Melihat Usaha" style="rounded=0;whiteSpace=wrap;html=1;" vertex="1" parent="Zu1tbRachrqtXYw8oNH1-19">
          <mxGeometry x="605" y="46" width="90" height="60" as="geometry" />
        </mxCell>
        <mxCell id="Zu1tbRachrqtXYw8oNH1-30" value="Memilih Usaha dan Memberi Dana" style="rounded=0;whiteSpace=wrap;html=1;" vertex="1" parent="Zu1tbRachrqtXYw8oNH1-19">
          <mxGeometry x="730" y="46" width="90" height="60" as="geometry" />
        </mxCell>
        <mxCell id="Zu1tbRachrqtXYw8oNH1-31" value="" style="endArrow=classic;html=1;rounded=0;entryX=0;entryY=0.5;entryDx=0;entryDy=0;exitX=1;exitY=0.5;exitDx=0;exitDy=0;" edge="1" parent="Zu1tbRachrqtXYw8oNH1-19" source="Zu1tbRachrqtXYw8oNH1-28" target="Zu1tbRachrqtXYw8oNH1-30">
          <mxGeometry width="50" height="50" relative="1" as="geometry">
            <mxPoint x="520" y="40" as="sourcePoint" />
            <mxPoint x="570" y="-10" as="targetPoint" />
          </mxGeometry>
        </mxCell>
        <mxCell id="Zu1tbRachrqtXYw8oNH1-39" value="Laporan Progress" style="shape=note;whiteSpace=wrap;html=1;backgroundOutline=1;darkOpacity=0.05;" vertex="1" parent="Zu1tbRachrqtXYw8oNH1-19">
          <mxGeometry x="914" y="41" width="52.8" height="66" as="geometry" />
        </mxCell>
        <mxCell id="dNxyNK7c78bLwvsdeMH5-21" value="Basis Data" style="swimlane;html=1;startSize=20;horizontal=0;" parent="dNxyNK7c78bLwvsdeMH5-19" vertex="1">
          <mxGeometry x="20" y="420" width="1080" height="140" as="geometry" />
        </mxCell>
        <mxCell id="Zu1tbRachrqtXYw8oNH1-25" value="Basis Data usaha" style="shape=cylinder3;whiteSpace=wrap;html=1;boundedLbl=1;backgroundOutline=1;size=15;" vertex="1" parent="dNxyNK7c78bLwvsdeMH5-21">
          <mxGeometry x="490" y="30" width="60" height="80" as="geometry" />
        </mxCell>
        <mxCell id="Zu1tbRachrqtXYw8oNH1-43" value="" style="endArrow=classic;html=1;rounded=0;entryX=0.5;entryY=1;entryDx=0;entryDy=0;entryPerimeter=0;exitX=1;exitY=1;exitDx=0;exitDy=-15;exitPerimeter=0;" edge="1" parent="dNxyNK7c78bLwvsdeMH5-21">
          <mxGeometry width="50" height="50" relative="1" as="geometry">
            <mxPoint x="550" y="94" as="sourcePoint" />
            <mxPoint x="940.4000000000001" y="-44" as="targetPoint" />
            <Array as="points">
              <mxPoint x="940" y="94" />
            </Array>
          </mxGeometry>
        </mxCell>
        <mxCell id="Zu1tbRachrqtXYw8oNH1-16" value="" style="endArrow=classic;html=1;rounded=0;exitX=0.5;exitY=1;exitDx=0;exitDy=0;entryX=0.5;entryY=0;entryDx=0;entryDy=0;" edge="1" parent="dNxyNK7c78bLwvsdeMH5-19" source="Zu1tbRachrqtXYw8oNH1-13" target="Zu1tbRachrqtXYw8oNH1-15">
          <mxGeometry width="50" height="50" relative="1" as="geometry">
            <mxPoint x="280" y="180" as="sourcePoint" />
            <mxPoint x="330" y="130" as="targetPoint" />
          </mxGeometry>
        </mxCell>
        <mxCell id="Zu1tbRachrqtXYw8oNH1-23" value="" style="endArrow=classic;html=1;rounded=0;entryX=0.5;entryY=1;entryDx=0;entryDy=0;exitX=0.5;exitY=0;exitDx=0;exitDy=0;" edge="1" parent="dNxyNK7c78bLwvsdeMH5-19" source="Zu1tbRachrqtXYw8oNH1-20" target="Zu1tbRachrqtXYw8oNH1-22">
          <mxGeometry width="50" height="50" relative="1" as="geometry">
            <mxPoint x="470" y="300" as="sourcePoint" />
            <mxPoint x="520" y="250" as="targetPoint" />
          </mxGeometry>
        </mxCell>
        <mxCell id="Zu1tbRachrqtXYw8oNH1-24" value="Tidak" style="edgeLabel;html=1;align=center;verticalAlign=middle;resizable=0;points=[];" vertex="1" connectable="0" parent="Zu1tbRachrqtXYw8oNH1-23">
          <mxGeometry x="-0.2" y="-4" relative="1" as="geometry">
            <mxPoint as="offset" />
          </mxGeometry>
        </mxCell>
        <mxCell id="Zu1tbRachrqtXYw8oNH1-26" value="" style="endArrow=classic;html=1;rounded=0;entryX=0.5;entryY=0;entryDx=0;entryDy=0;entryPerimeter=0;exitX=0.5;exitY=1;exitDx=0;exitDy=0;" edge="1" parent="dNxyNK7c78bLwvsdeMH5-19" source="Zu1tbRachrqtXYw8oNH1-20" target="Zu1tbRachrqtXYw8oNH1-25">
          <mxGeometry width="50" height="50" relative="1" as="geometry">
            <mxPoint x="470" y="380" as="sourcePoint" />
            <mxPoint x="520" y="330" as="targetPoint" />
          </mxGeometry>
        </mxCell>
        <mxCell id="Zu1tbRachrqtXYw8oNH1-27" value="Iya" style="edgeLabel;html=1;align=center;verticalAlign=middle;resizable=0;points=[];" vertex="1" connectable="0" parent="Zu1tbRachrqtXYw8oNH1-26">
          <mxGeometry x="0.1244" y="1" relative="1" as="geometry">
            <mxPoint as="offset" />
          </mxGeometry>
        </mxCell>
        <mxCell id="Zu1tbRachrqtXYw8oNH1-29" value="" style="endArrow=classic;html=1;rounded=0;exitX=1;exitY=0.5;exitDx=0;exitDy=0;exitPerimeter=0;entryX=0.5;entryY=1;entryDx=0;entryDy=0;" edge="1" parent="dNxyNK7c78bLwvsdeMH5-19" source="Zu1tbRachrqtXYw8oNH1-25" target="Zu1tbRachrqtXYw8oNH1-28">
          <mxGeometry width="50" height="50" relative="1" as="geometry">
            <mxPoint x="570" y="400" as="sourcePoint" />
            <mxPoint x="620" y="350" as="targetPoint" />
            <Array as="points">
              <mxPoint x="670" y="490" />
            </Array>
          </mxGeometry>
        </mxCell>
        <mxCell id="Zu1tbRachrqtXYw8oNH1-33" value="" style="endArrow=classic;html=1;rounded=0;entryX=0.5;entryY=1;entryDx=0;entryDy=0;exitX=0.5;exitY=0;exitDx=0;exitDy=0;" edge="1" parent="dNxyNK7c78bLwvsdeMH5-19" source="Zu1tbRachrqtXYw8oNH1-30" target="Zu1tbRachrqtXYw8oNH1-32">
          <mxGeometry width="50" height="50" relative="1" as="geometry">
            <mxPoint x="640" y="330" as="sourcePoint" />
            <mxPoint x="690" y="280" as="targetPoint" />
          </mxGeometry>
        </mxCell>
        <mxCell id="Zu1tbRachrqtXYw8oNH1-35" value="" style="endArrow=classic;html=1;rounded=0;entryX=0.5;entryY=1;entryDx=0;entryDy=0;exitX=0.5;exitY=0;exitDx=0;exitDy=0;" edge="1" parent="dNxyNK7c78bLwvsdeMH5-19" source="Zu1tbRachrqtXYw8oNH1-32" target="Zu1tbRachrqtXYw8oNH1-34">
          <mxGeometry width="50" height="50" relative="1" as="geometry">
            <mxPoint x="740" y="170" as="sourcePoint" />
            <mxPoint x="790" y="120" as="targetPoint" />
          </mxGeometry>
        </mxCell>
        <mxCell id="Zu1tbRachrqtXYw8oNH1-42" value="" style="endArrow=classic;html=1;rounded=0;exitX=1;exitY=0.5;exitDx=0;exitDy=0;entryX=1;entryY=0;entryDx=0;entryDy=52.5;entryPerimeter=0;" edge="1" parent="dNxyNK7c78bLwvsdeMH5-19" source="Zu1tbRachrqtXYw8oNH1-34" target="Zu1tbRachrqtXYw8oNH1-25">
          <mxGeometry width="50" height="50" relative="1" as="geometry">
            <mxPoint x="720" y="390" as="sourcePoint" />
            <mxPoint x="770" y="340" as="targetPoint" />
            <Array as="points">
              <mxPoint x="860" y="60" />
              <mxPoint x="860" y="503" />
            </Array>
          </mxGeometry>
        </mxCell>
      </root>
    </mxGraphModel>
  </diagram>
</mxfile>
